<?xml version="1.0" encoding="UTF-8"?>
<!DOCTYPE svg PUBLIC "-//W3C//DTD SVG 1.1//EN" "http://www.w3.org/Graphics/SVG/1.1/DTD/svg11.dtd">
<!-- Creator: CorelDRAW -->
<svg xmlns="http://www.w3.org/2000/svg" xml:space="preserve" width="1001px" height="362px" version="1.1" style="shape-rendering:geometricPrecision; text-rendering:geometricPrecision; image-rendering:optimizeQuality; fill-rule:evenodd; clip-rule:evenodd"
viewBox="0 0 1000.28 361.56"
 xmlns:xlink="http://www.w3.org/1999/xlink"
 xmlns:xodm="http://www.corel.com/coreldraw/odm/2003">
 <defs>
  <style type="text/css">
   <![CDATA[
    .str0 {stroke:#01818A;stroke-width:0.48;stroke-miterlimit:10}
    .str2 {stroke:#036A75;stroke-width:0.48;stroke-miterlimit:10}
    .str3 {stroke:#23E1F1;stroke-width:0.48;stroke-miterlimit:10}
    .str1 {stroke:#23E1F1;stroke-width:0.48;stroke-miterlimit:10}
    .fil3 {fill:#036A75;fill-rule:nonzero}
    .fil5 {fill:#184D67;fill-rule:nonzero}
    .fil2 {fill:#23E1F1;fill-rule:nonzero}
    .fil1 {fill:#23E1F1;fill-rule:nonzero}
    .fil4 {fill:#9ADBE3;fill-rule:nonzero}
    .fil0 {fill:#D3D5DB;fill-rule:nonzero}
    .fil6 {fill:url(#id0);fill-rule:nonzero}
   ]]>
  </style>
  <linearGradient id="id0" gradientUnits="userSpaceOnUse" x1="193.31" y1="106.41" x2="134.88" y2="251.12">
   <stop offset="0" style="stop-opacity:1; stop-color:#018790"/>
   <stop offset="1" style="stop-opacity:1; stop-color:#00E3F7"/>
  </linearGradient>
 </defs>
 <g id="Camada_x0020_1">
  <metadata id="CorelCorpID_0Corel-Layer"/>
  <g id="_2020466032912">
   <path class="fil0" d="M300.66 67.74c1.04,0 1.88,-0.89 1.88,-1.97 0,-1.09 -0.84,-1.98 -1.88,-1.98 -1.03,0 -1.88,0.89 -1.88,1.98 0,1.08 0.85,1.97 1.88,1.97zm0 -3.41c0.76,0 1.37,0.64 1.37,1.44 0,0.79 -0.61,1.44 -1.37,1.44 -0.75,0 -1.37,-0.65 -1.37,-1.44 0,-0.8 0.62,-1.44 1.37,-1.44z"/>
   <path class="fil1 str0" d="M198.39 237.21c1.04,0 1.88,-0.88 1.88,-1.97 0,-1.09 -0.84,-1.97 -1.88,-1.97 -1.03,0 -1.88,0.88 -1.88,1.97 0,1.09 0.85,1.97 1.88,1.97zm0 -3.41c0.76,0 1.37,0.64 1.37,1.44 0,0.79 -0.61,1.44 -1.37,1.44 -0.76,0 -1.37,-0.65 -1.37,-1.44 0,-0.8 0.61,-1.44 1.37,-1.44z"/>
   <path class="fil0" d="M259.8 342.69c1.03,0 1.87,-0.89 1.87,-1.98 0,-1.09 -0.84,-1.97 -1.87,-1.97 -1.04,0 -1.88,0.88 -1.88,1.97 0,1.09 0.84,1.98 1.88,1.98zm0 -3.42c0.75,0 1.37,0.65 1.37,1.44 0,0.8 -0.62,1.44 -1.37,1.44 -0.76,0 -1.37,-0.64 -1.37,-1.44 0,-0.79 0.61,-1.44 1.37,-1.44z"/>
   <path class="fil0" d="M202.55 33.06c1.03,0 1.87,-0.88 1.87,-1.97 0,-1.09 -0.84,-1.97 -1.87,-1.97 -1.04,0 -1.88,0.88 -1.88,1.97 0,1.09 0.84,1.97 1.88,1.97zm0 -3.41c0.75,0 1.37,0.64 1.37,1.44 0,0.79 -0.62,1.44 -1.37,1.44 -0.76,0 -1.37,-0.65 -1.37,-1.44 0,-0.8 0.61,-1.44 1.37,-1.44z"/>
   <path class="fil2" d="M292.54 112.75l30.38 -15.47c-13.4,-26.31 -33.28,-49.21 -57.5,-66.22l-19.59 27.9c19.67,13.82 35.83,32.42 46.71,53.79z"/>
   <path class="fil2" d="M216.4 352.89c26.73,-8.6 51.49,-23.62 71.6,-43.43l-23.93 -24.28c-16.33,16.09 -36.42,28.28 -58.11,35.26l10.44 32.45z"/>
   <path class="fil2" d="M160.89 361.56l0 -34.09c-18.36,0 -36.25,-3.34 -53.19,-9.91l-12.34 31.78c20.89,8.11 42.94,12.22 65.53,12.22z"/>
   <path class="fil2" d="M111.12 41.64c4.67,-1.63 9.48,-3.05 14.28,-4.2l-7.91 -33.16c-5.94,1.42 -11.87,3.17 -17.64,5.18l11.27 32.18z"/>
   <path class="fil2" d="M195.68 37.57l8.04 -33.13c-8.92,-2.16 -18.08,-3.66 -27.25,-4.44l-2.9 33.97c7.44,0.63 14.88,1.84 22.11,3.6z"/>
   <path class="fil1" d="M218.35 65.42c9.92,4.66 19.23,10.62 27.67,17.69l-1.05 1.25c-8.33,-6.98 -17.52,-12.85 -27.32,-17.46l0.7 -1.48z"/>
   <path class="fil1" d="M251.02 89.79l1.13 -1.19c7.96,7.6 14.9,16.2 20.64,25.55l-1.4 0.86c-5.66,-9.24 -12.52,-17.72 -20.37,-25.22z"/>
   <path class="fil1" d="M210.78 62.17l-0.6 1.52c-10.08,-3.95 -20.66,-6.58 -31.46,-7.8l0.19 -1.63c10.93,1.24 21.66,3.9 31.87,7.91z"/>
   <path class="fil1 str1" d="M170.62 55.23c-2.05,-0.1 -4.14,-0.15 -6.2,-0.15l0 -1.64c2.09,0 4.2,0.05 6.28,0.15l-0.08 1.64z"/>
   <path class="fil3" d="M86.7 261.27l-0.57 0.59c-10.84,-10.42 -19.35,-22.67 -25.32,-36.4 -6.18,-14.22 -9.31,-29.35 -9.31,-44.98 0,-18.27 4.46,-36.42 12.91,-52.48l0.72 0.38c-8.38,15.94 -12.82,33.96 -12.82,52.1 0,15.52 3.12,30.54 9.25,44.65 5.92,13.63 14.38,25.79 25.14,36.14z"/>
   <path class="fil4" d="M164.42 67.56l0 0.82c-28.82,0 -56.19,10.91 -77.1,30.72 -0.08,0.07 -0.17,0.11 -0.28,0.11 -0.1,0 -0.21,-0.04 -0.29,-0.12l-0.04 -0.04 0.3 -0.29 -0.25 -0.26c21.06,-19.95 48.63,-30.94 77.66,-30.94z"/>
   <path class="fil5" d="M83.17 70.97c-17.83,11.62 -32.71,27.6 -43.01,46.2 -10.64,19.19 -16.26,41 -16.26,63.08l-2.29 0c0,46.61 23.27,89.78 62.25,115.46 0.16,0.11 0.23,0.31 0.16,0.49 -0.06,0.16 -0.22,0.26 -0.38,0.26l-0.07 0 -0.34 -0.05 0.02 -0.12c-39.11,-25.85 -62.45,-69.22 -62.45,-116.04l0.11 0c0,-22.59 5.74,-44.9 16.62,-64.54 10.54,-19.02 25.76,-35.36 44,-47.25l1.64 2.51z"/>
   <path class="fil1" d="M262.43 247.65c0.25,-0.36 0.51,-0.72 0.76,-1.08l8.28 5.76c-0.27,0.39 -0.54,0.78 -0.82,1.16l-8.22 -5.84z"/>
   <path class="fil1" d="M216.99 286.15c0.39,-0.19 0.78,-0.39 1.17,-0.58l4.51 9.02c-0.42,0.22 -0.84,0.42 -1.27,0.63l-4.41 -9.07z"/>
   <path class="fil1" d="M265.8 242.65c0.23,-0.36 0.47,-0.74 0.7,-1.11l8.56 5.34c-0.25,0.4 -0.5,0.8 -0.76,1.2l-8.5 -5.43z"/>
   <path class="fil1" d="M250.9 261.53c0.3,-0.32 0.6,-0.63 0.9,-0.95l7.33 6.93c-0.32,0.35 -0.65,0.69 -0.98,1.03l-7.25 -7.01z"/>
   <path class="fil1" d="M242.11 269.75c0.34,-0.28 0.67,-0.56 1,-0.85l6.6 7.63c-0.35,0.31 -0.71,0.62 -1.07,0.92l-6.53 -7.7z"/>
   <path class="fil1" d="M232.56 277.07c0.36,-0.25 0.72,-0.5 1.07,-0.75l5.82 8.24c-0.39,0.28 -0.78,0.55 -1.17,0.82l-5.72 -8.31z"/>
   <path class="fil1" d="M227.52 280.35c0.37,-0.23 0.74,-0.46 1.11,-0.69l5.39 8.53c-0.39,0.25 -0.8,0.5 -1.2,0.75l-5.3 -8.59z"/>
   <path class="fil1" d="M246.61 265.75c0.31,-0.3 0.63,-0.6 0.95,-0.9l6.98 7.29c-0.35,0.33 -0.69,0.65 -1.03,0.97l-6.9 -7.36z"/>
   <path class="fil1" d="M258.82 252.46c0.27,-0.34 0.54,-0.68 0.81,-1.03l7.98 6.17c-0.29,0.37 -0.58,0.74 -0.87,1.12l-7.92 -6.26z"/>
   <path class="fil1" d="M254.97 257.09c0.29,-0.33 0.57,-0.66 0.86,-0.99l7.67 6.56c-0.31,0.36 -0.62,0.72 -0.93,1.08l-7.6 -6.65z"/>
   <path class="fil1" d="M237.43 273.53c0.34,-0.27 0.69,-0.53 1.03,-0.8l6.22 7.95c-0.37,0.29 -0.75,0.58 -1.12,0.86l-6.13 -8.01z"/>
   <path class="fil1" d="M222.33 283.38c0.38,-0.21 0.76,-0.42 1.14,-0.63l4.96 8.78c-0.41,0.24 -0.82,0.47 -1.24,0.69l-4.86 -8.84z"/>
   <path class="fil1" d="M164.72 308.27l-0.02 -10.09c0.44,0 0.88,0 1.31,-0.01l0.12 10.09c-0.47,0.01 -0.94,0.01 -1.41,0.01z"/>
   <path class="fil1" d="M140.16 305.99c-0.46,-0.09 -0.93,-0.18 -1.39,-0.27l1.99 -9.89c0.43,0.08 0.85,0.17 1.29,0.25l-1.89 9.91z"/>
   <path class="fil1" d="M159.61 308.18c-0.47,-0.02 -0.94,-0.04 -1.41,-0.06l0.48 -10.08c0.44,0.02 0.88,0.04 1.31,0.06l-0.38 10.08z"/>
   <path class="fil1" d="M133.77 304.61c-0.46,-0.11 -0.92,-0.22 -1.38,-0.34l2.49 -9.78c0.42,0.11 0.84,0.21 1.27,0.32l-2.38 9.8z"/>
   <path class="fil1" d="M146.61 307.05c-0.46,-0.07 -0.93,-0.14 -1.4,-0.2l1.48 -9.99c0.43,0.07 0.87,0.13 1.3,0.19l-1.38 10z"/>
   <path class="fil1" d="M115.15 298.57c-0.44,-0.18 -0.88,-0.36 -1.32,-0.54l3.94 -9.3c0.4,0.17 0.8,0.34 1.21,0.51l-3.83 9.33z"/>
   <path class="fil1" d="M121.25 300.9c-0.44,-0.16 -0.89,-0.32 -1.34,-0.48l3.46 -9.48c0.41,0.15 0.82,0.3 1.24,0.44l-3.36 9.52z"/>
   <path class="fil1" d="M130.34 293.24l-2.88 9.68c-0.45,-0.14 -0.9,-0.28 -1.35,-0.42l2.97 -9.64c0.42,0.13 0.83,0.26 1.26,0.38z"/>
   <path class="fil1" d="M196.99 304.19l-2.51 -9.77c0.42,-0.11 0.84,-0.22 1.26,-0.33l2.61 9.74c-0.45,0.12 -0.91,0.24 -1.36,0.36z"/>
   <path class="fil1" d="M203.25 302.42l-3 -9.64c0.42,-0.13 0.83,-0.26 1.24,-0.39l3.11 9.6c-0.45,0.14 -0.9,0.29 -1.35,0.43z"/>
   <path class="fil1" d="M277.68 242.5l-8.77 -5c0.22,-0.38 0.43,-0.76 0.65,-1.14l8.82 4.9c-0.23,0.41 -0.47,0.82 -0.7,1.24z"/>
   <path class="fil1" d="M209.42 300.32l-3.48 -9.47c0.41,-0.15 0.81,-0.3 1.22,-0.46l3.58 9.44c-0.44,0.17 -0.88,0.33 -1.32,0.49z"/>
   <path class="fil1" d="M215.47 297.92l-3.95 -9.28c0.4,-0.17 0.8,-0.34 1.2,-0.52l4.05 9.24c-0.43,0.19 -0.86,0.38 -1.3,0.56z"/>
   <path class="fil1" d="M177.74 307.61l-1.01 -10.04c0.43,-0.04 0.87,-0.09 1.3,-0.14l1.12 10.03c-0.47,0.05 -0.94,0.1 -1.41,0.15z"/>
   <path class="fil1" d="M190.64 305.65l-2.02 -9.89c0.43,-0.08 0.86,-0.17 1.28,-0.26l2.12 9.86c-0.46,0.1 -0.92,0.2 -1.38,0.29z"/>
   <path class="fil1" d="M171.23 308.1l-0.51 -10.08c0.44,-0.02 0.88,-0.04 1.31,-0.07l0.62 10.07c-0.47,0.03 -0.94,0.06 -1.42,0.08z"/>
   <path class="fil1" d="M184.21 306.79l-1.51 -9.97c0.43,-0.07 0.86,-0.14 1.29,-0.21l1.62 9.96c-0.46,0.08 -0.93,0.15 -1.4,0.22z"/>
   <path class="fil1" d="M153.11 307.78c-0.48,-0.04 -0.95,-0.09 -1.42,-0.14l0.99 -10.04c0.43,0.04 0.87,0.09 1.3,0.12l-0.87 10.06z"/>
   <path class="fil1" d="M102.08 292.34l4.85 -8.85c0.38,0.21 0.77,0.42 1.15,0.62l-4.75 8.9c-0.42,-0.22 -0.83,-0.45 -1.25,-0.67z"/>
   <path class="fil1" d="M71.06 268.69l7.25 -7.02c0.3,0.31 0.61,0.62 0.91,0.93l-7.17 7.1c-0.33,-0.34 -0.66,-0.67 -0.99,-1.01z"/>
   <path class="fil1" d="M96.44 289.06l5.29 -8.6c0.37,0.23 0.74,0.46 1.11,0.68l-5.19 8.66c-0.41,-0.25 -0.81,-0.49 -1.21,-0.74z"/>
   <path class="fil1" d="M66.64 263.89l7.58 -6.65c0.29,0.33 0.58,0.65 0.87,0.98l-7.51 6.73c-0.32,-0.35 -0.63,-0.7 -0.94,-1.06z"/>
   <path class="fil1" d="M107.89 295.33l4.39 -9.08c0.39,0.19 0.79,0.38 1.18,0.56l-4.29 9.13c-0.43,-0.2 -0.85,-0.4 -1.28,-0.61z"/>
   <path class="fil1" d="M80.59 277.59l6.51 -7.71c0.34,0.28 0.67,0.56 1.01,0.84l-6.43 7.78c-0.36,-0.3 -0.73,-0.61 -1.09,-0.91z"/>
   <path class="fil1" d="M90.97 285.5l5.71 -8.32c0.36,0.25 0.72,0.49 1.08,0.74l-5.62 8.38c-0.39,-0.27 -0.78,-0.53 -1.17,-0.8z"/>
   <path class="fil1" d="M83.56 266.77l-6.8 7.45c-0.36,-0.32 -0.7,-0.64 -1.04,-0.96l6.88 -7.38c0.32,0.3 0.64,0.6 0.96,0.89z"/>
   <path class="fil1" d="M85.68 281.67l6.12 -8.02c0.35,0.27 0.7,0.53 1.04,0.79l-6.03 8.09c-0.38,-0.28 -0.75,-0.57 -1.13,-0.86z"/>
   <path class="fil1" d="M100.18 256.86c8.81,7.42 18.71,13.2 29.45,17.19 11.11,4.14 22.82,6.23 34.79,6.23l0 1.64c-12.17,0 -24.06,-2.13 -35.35,-6.33 -10.92,-4.06 -21,-9.94 -29.95,-17.47l1.06 -1.26z"/>
   <path class="fil3" d="M132.75 88.41l-2.13 -6.19c0.44,-0.16 0.89,-0.31 1.34,-0.45l2.04 6.22c-0.42,0.13 -0.83,0.27 -1.25,0.42z"/>
   <path class="fil3" d="M138.55 86.61l-1.74 -6.31c0.45,-0.12 0.91,-0.24 1.36,-0.36l1.66 6.33c-0.43,0.11 -0.86,0.23 -1.28,0.34z"/>
   <path class="fil3" d="M111.01 99.08l-3.59 -5.47c0.39,-0.25 0.78,-0.51 1.18,-0.76l3.52 5.52c-0.37,0.23 -0.74,0.47 -1.11,0.71z"/>
   <path class="fil3" d="M116.19 95.91l-3.25 -5.68c0.41,-0.24 0.82,-0.47 1.23,-0.69l3.17 5.72c-0.39,0.21 -0.77,0.43 -1.15,0.65z"/>
   <path class="fil3" d="M127.08 90.56l-2.52 -6.05c0.44,-0.18 0.87,-0.35 1.31,-0.53l2.42 6.08c-0.4,0.16 -0.81,0.33 -1.21,0.5z"/>
   <path class="fil3" d="M121.55 93.06l-2.89 -5.87c0.42,-0.21 0.84,-0.41 1.27,-0.62l2.81 5.92c-0.4,0.19 -0.8,0.38 -1.19,0.57z"/>
   <path class="fil3" d="M97.06 101.38c0.36,-0.3 0.72,-0.6 1.08,-0.9l4.18 5.03c-0.34,0.29 -0.68,0.57 -1.01,0.85l-4.25 -4.98z"/>
   <path class="fil3" d="M92.27 105.73c0.34,-0.32 0.67,-0.65 1.02,-0.97l4.48 4.77c-0.32,0.3 -0.64,0.61 -0.95,0.91l-4.55 -4.71z"/>
   <path class="fil3" d="M144.44 85.19l-1.33 -6.41c0.46,-0.09 0.93,-0.19 1.39,-0.28l1.25 6.43c-0.44,0.08 -0.87,0.17 -1.31,0.26z"/>
   <path class="fil3" d="M107.11 101.79c-0.36,0.26 -0.71,0.52 -1.06,0.78l-3.93 -5.23c0.38,-0.28 0.76,-0.56 1.13,-0.84l3.86 5.29z"/>
   <path class="fil3" d="M205.84 92.37c-13,-6.13 -26.94,-9.23 -41.42,-9.23 -4.56,0 -9.14,0.32 -13.62,0.94l-0.91 -6.48c4.79,-0.67 9.67,-1.01 14.53,-1.01 15.45,0 30.33,3.32 44.21,9.86l-2.79 5.92z"/>
   <path class="fil5" d="M98.29 246.61c-17.67,-17.66 -27.4,-41.15 -27.4,-66.13 0,-28.6 12.84,-55.25 35.21,-73.12l0.69 0.86c-22.12,17.66 -34.81,44 -34.81,72.26 0,24.69 9.62,47.9 27.08,65.36 17.45,17.46 40.66,27.08 65.36,27.08 28.2,0 54.5,-12.64 72.16,-34.67l0.85 0.68c-17.87,22.29 -44.48,35.08 -73.01,35.08 -24.98,0 -48.47,-9.73 -66.13,-27.4z"/>
   <path class="fil3" d="M285.58 100.23l13.52 -8.73c-21.44,-33.19 -54.07,-57.41 -91.88,-68.21l-4.42 15.48c34.06,9.73 63.46,31.56 82.78,61.46z"/>
   <path class="fil3 str2" d="M300.59 265.29c3.44,-5.53 6.57,-11.32 9.32,-17.21l-14.6 -6.79c-2.46,5.3 -5.29,10.52 -8.38,15.5l13.66 8.5z"/>
   <path class="fil3" d="M265.75 305.07c6.81,-5.6 13.2,-11.8 19.01,-18.43l-12.11 -10.61c-5.23,5.98 -11,11.57 -17.13,16.62l10.23 12.42z"/>
   <path class="fil3" d="M85.47 322.69l7.64 -14.16c-13.29,-7.17 -25.37,-16.33 -35.9,-27.22l-11.57 11.18c11.68,12.09 25.08,22.25 39.83,30.2z"/>
   <path class="fil3" d="M4.12 216.09l15.68 -3.6c-2.46,-10.73 -3.71,-21.8 -3.71,-32.92 0,-25.11 6.47,-49.88 18.69,-71.63l-14.03 -7.89c-13.58,24.15 -20.75,51.65 -20.75,79.52 0,12.33 1.38,24.61 4.12,36.52z"/>
   <path class="fil3" d="M47.06 89.5c2.06,-2.64 4.25,-5.24 6.49,-7.73l-11.98 -10.76c-2.48,2.77 -4.9,5.66 -7.19,8.58l12.68 9.91z"/>
   <path class="fil3" d="M64.07 71.18c3.79,-3.44 7.79,-6.71 11.9,-9.73l-9.52 -12.97c-4.56,3.34 -9,6.98 -13.2,10.79l10.82 11.91z"/>
   <path class="fil3" d="M98.77 47.72c3.65,-1.77 7.42,-3.4 11.2,-4.86l-5.77 -15.02c-4.21,1.61 -8.39,3.43 -12.45,5.39l7.02 14.49z"/>
   <path class="fil3" d="M128.08 37.23c11.2,-2.7 22.79,-4.07 34.42,-4.07l0 -16.1c-12.9,0 -25.75,1.52 -38.19,4.52l3.77 15.65z"/>
   <path class="fil6" d="M165.63 100.21c18.79,0 34.38,4.62 46.76,13.87 12.38,9.25 20.32,21.75 23.82,37.48l-32.34 0c-3.06,-6.99 -7.91,-12.57 -14.54,-16.72 -6.62,-4.15 -14.45,-6.23 -23.49,-6.23 -8.88,0 -16.75,2.04 -23.59,6.12 -6.85,4.08 -12.17,9.91 -15.96,17.48 -3.78,7.58 -5.68,16.47 -5.68,26.66 0,16.17 4.34,28.77 13,37.81 8.67,9.03 20.51,13.54 35.51,13.54 11.07,0 20.58,-3.27 28.52,-9.83 7.94,-6.55 13.07,-15.66 15.4,-27.31l-52.22 0 0 -22.07 78.01 0 0 29.71c-2.19,10.2 -6.45,19.6 -12.78,28.19 -6.34,8.6 -14.65,15.48 -24.92,20.65 -10.27,5.17 -22.03,7.76 -35.29,7.76 -15.15,0 -28.51,-3.31 -40.09,-9.94 -11.58,-6.63 -20.54,-15.88 -26.88,-27.75 -6.34,-11.88 -9.51,-25.46 -9.51,-40.76 0,-15.29 3.17,-28.88 9.51,-40.75 6.34,-11.87 15.26,-21.16 26.77,-27.86 11.51,-6.7 24.84,-10.05 39.99,-10.05z"/>
   <g>
    <g>
     <path class="fil2" d="M427.89 186.3c0,91.98 0,-94.58 0,43.32 0,18.09 -14.67,32.76 -32.77,32.76 -9.9,0 -18.75,-4.41 -24.76,-11.35l-12.93 22.39c10.13,8.72 23.28,14.03 37.69,14.03 31.49,0 57.04,-25.17 57.77,-56.49l0.07 0 0 -44.66 -25.07 0z"/>
     <path class="fil2" d="M578.56 117.27c-31.94,0 -57.83,25.9 -57.83,57.84 0,8.92 2.08,17.34 5.68,24.88l23.09 -39.99c5.46,-10.48 16.41,-17.66 29.06,-17.66 18.09,0 32.77,14.67 32.77,32.77 0,18.09 -14.68,32.76 -32.77,32.76 -9.9,0 -18.76,-4.41 -24.76,-11.35l-12.93 22.39c10.12,8.72 23.28,14.03 37.69,14.03 31.94,0 57.83,-25.89 57.83,-57.83 0,-31.94 -25.89,-57.84 -57.83,-57.84z"/>
     <path class="fil2" d="M683.11 117.27c-12.17,0 -23.45,3.78 -32.77,10.21l0 -53.37 -25.06 0 0 102.35 0.07 0c0.19,8.4 2.22,16.33 5.63,23.48l23.16 -40.12c5.5,-10.39 16.4,-17.48 28.97,-17.48 18.1,0 32.77,14.67 32.77,32.77 0,18.09 -14.67,32.76 -32.77,32.76 -9.91,0 -18.76,-4.41 -24.77,-11.36l-12.91 22.36c10.11,8.74 23.26,14.07 37.68,14.07 31.94,0 57.84,-25.89 57.84,-57.83 0,-31.94 -25.9,-57.84 -57.84,-57.84z"/>
     <path class="fil2" d="M452.89 173.76c-0.72,-31.31 -26.28,-56.49 -57.77,-56.49 -31.94,0 -57.83,25.9 -57.83,57.84 0,8.91 2.08,17.32 5.68,24.86l23.23 -40.25c5.51,-10.34 16.39,-17.38 28.92,-17.38 18.1,0 32.77,14.67 32.77,32.77 0,18.09 -14.67,32.76 -32.77,32.76 -9.91,0 -18.77,-4.42 -24.78,-11.37l-12.93 22.4c10.13,8.73 23.29,14.04 37.71,14.04 12.17,0 23.45,-3.78 32.77,-10.2l0 9.14 25.07 0 0 -58.12 -0.07 0z"/>
     <path class="fil2" d="M470.44 74.59c0,91.98 0,-38.41 0,99.49 0,18.1 14.68,32.77 32.77,32.77 9.9,0 18.76,-4.41 24.77,-11.35l12.92 22.39c-10.12,8.72 -23.28,14.03 -37.69,14.03 -31.49,0 -57.04,-25.18 -57.77,-56.49l-0.07 0 0 -100.84 25.07 0z"/>
     <path class="fil2 str3" d="M786.63 117.27c-31.94,0 -57.83,25.9 -57.83,57.84 0,8.92 2.08,17.34 5.68,24.88l23.09 -39.99c5.47,-10.48 16.42,-17.66 29.06,-17.66 18.1,0 32.77,14.67 32.77,32.77 0,18.09 -14.67,32.76 -32.77,32.76 -9.9,0 -18.76,-4.41 -24.76,-11.35l-12.93 22.39c10.13,8.72 23.28,14.03 37.69,14.03 31.94,0 57.83,-25.89 57.83,-57.83 0,-31.94 -25.89,-57.84 -57.83,-57.84z"/>
     <path class="fil2 str3" d="M890.8 117.27c-31.94,0 -57.83,25.9 -57.83,57.84 0,8.92 2.08,17.34 5.68,24.88l23.09 -39.99c5.47,-10.48 16.42,-17.66 29.06,-17.66 18.1,0 32.77,14.67 32.77,32.77 0,18.09 -14.67,32.76 -32.77,32.76 -9.9,0 -18.76,-4.41 -24.76,-11.35l-12.93 22.39c10.13,8.72 23.28,14.03 37.69,14.03 31.94,0 57.83,-25.89 57.83,-57.83 0,-31.94 -25.89,-57.84 -57.83,-57.84z"/>
    </g>
    <polygon class="fil2" points="956.71,125.22 956.71,102.44 948.59,102.44 948.59,97.8 970.34,97.8 970.34,102.44 962.26,102.44 962.26,125.22 "/>
    <polygon id="_1" class="fil2" points="973.86,125.22 973.86,97.8 982.17,97.8 987.09,116.5 991.94,97.8 1000.28,97.8 1000.28,125.22 995.14,125.22 995.13,103.64 989.72,125.22 984.39,125.22 979.01,103.64 978.99,125.22 "/>
   </g>
  </g>
 </g>
</svg>
